<?xml version="1.0" standalone="no"?>
<!DOCTYPE svg PUBLIC "-//W3C//DTD SVG 20010904//EN"
 "http://www.w3.org/TR/2001/REC-SVG-20010904/DTD/svg10.dtd">
<svg version="1.0" xmlns="http://www.w3.org/2000/svg"
 width="300.000000pt" height="177.000000pt" viewBox="0 0 300.000000 177.000000"
 preserveAspectRatio="xMidYMid meet">
<metadata>
Created by potrace 1.10, written by Peter Selinger 2001-2011
</metadata>
<g transform="translate(0.000000,177.000000) scale(0.100000,-0.100000)"
fill="#000000" stroke="none">
<path d="M209 1735 c-15 -8 -30 -22 -34 -32 -78 -200 -145 -388 -145 -407 0
-44 32 -65 174 -119 l139 -52 27 -68 c15 -37 30 -70 33 -74 4 -3 7 21 7 54 l0
60 56 -14 c43 -11 63 -12 81 -4 30 14 71 100 125 265 42 129 48 193 8 86 -13
-36 -23 -65 -22 -65 5 0 -59 -178 -75 -210 -20 -40 -53 -75 -70 -75 -9 0 -5 8
10 23 16 14 52 92 101 222 83 217 86 236 34 269 -27 17 -394 156 -411 156 -7
-1 -24 -7 -38 -15z m256 -88 c166 -64 191 -76 199 -99 9 -25 -5 -95 -24 -123
-4 -5 -13 -28 -20 -50 -21 -65 -91 -239 -103 -254 -8 -10 -26 -12 -64 -7 -33
4 -54 2 -59 -5 -4 -7 -14 -1 -28 16 -14 18 -55 39 -125 66 -138 51 -173 70
-181 94 -8 21 123 388 149 419 7 9 25 16 40 16 14 0 111 -33 216 -73z"/>
<path d="M262 1597 c-32 -34 -30 -89 4 -116 35 -27 66 -27 100 2 37 32 39 84
5 114 -34 30 -81 30 -109 0z m92 -16 c40 -44 -8 -115 -58 -89 -41 22 -47 57
-16 88 25 25 52 25 74 1z"/>
<path d="M386 1429 c-14 -17 -26 -39 -26 -49 0 -32 48 -80 81 -80 40 0 79 40
79 80 0 40 -39 80 -79 80 -20 0 -37 -9 -55 -31z m94 -9 c11 -11 20 -29 20 -40
0 -22 -33 -60 -53 -60 -27 0 -57 31 -57 60 0 18 8 34 22 44 30 21 44 20 68 -4z"/>
<path d="M2271 1463 c-7 -26 -7 -41 1 -50 16 -20 25 -16 37 18 15 43 14 47 -9
59 -17 9 -20 6 -29 -27z"/>
<path d="M2143 1444 c-3 -9 -6 -29 -7 -44 -1 -15 -3 -27 -6 -26 -3 2 -22 -2
-42 -8 -44 -13 -39 -34 10 -38 26 -2 32 -6 29 -19 -3 -12 0 -16 9 -12 10 4 12
0 8 -11 -5 -12 -10 -13 -25 -5 -25 13 -26 -8 -1 -28 12 -9 13 -13 2 -11 -19 4
-19 -30 -1 -64 24 -45 37 -34 39 35 5 101 14 129 45 140 16 5 30 7 32 5 3 -2
-2 -38 -11 -78 -16 -78 -9 -120 20 -120 8 0 22 -3 32 -7 14 -5 16 -3 9 13 -8
20 -8 65 1 128 4 26 1 42 -8 47 -10 7 -10 9 0 9 18 0 15 28 -6 39 -20 10 -72
3 -72 -10 0 -5 -4 -9 -10 -9 -6 0 -6 9 0 26 14 36 13 39 -15 52 -21 10 -27 9
-32 -4z m29 -41 c-3 -16 -7 -22 -10 -15 -4 13 4 42 11 42 2 0 2 -12 -1 -27z
m-14 -52 c-7 -11 -16 -17 -20 -14 -10 5 10 33 23 33 5 0 4 -9 -3 -19z m109
-53 c-3 -8 -6 -5 -6 6 -1 11 2 17 5 13 3 -3 4 -12 1 -19z m-10 -40 c-3 -8 -6
-5 -6 6 -1 11 2 17 5 13 3 -3 4 -12 1 -19z"/>
<path d="M2736 1361 c-21 -115 -20 -128 4 -134 11 -3 20 -9 19 -14 -4 -21 2
-41 14 -46 9 -3 12 12 10 60 -1 35 4 95 11 134 13 65 13 70 -4 79 -10 6 -23
10 -28 10 -5 0 -17 -40 -26 -89z m43 -7 c-7 -27 -14 -43 -16 -37 -5 14 16 97
23 90 3 -2 -1 -26 -7 -53z m-21 -96 c-2 -5 -8 -9 -13 -9 -5 0 -11 4 -13 9 -1
5 4 9 13 9 9 0 14 -4 13 -9z"/>
<path d="M1593 1407 c-44 -17 -123 -80 -123 -98 0 -4 9 -7 19 -6 11 0 19 6 18
12 -1 5 5 10 13 10 8 0 13 -7 12 -15 -10 -43 -12 -147 -3 -160 17 -25 43 0 47
45 2 22 8 41 14 43 6 2 17 10 24 18 8 7 32 16 55 20 49 8 52 17 11 34 -21 9
-41 10 -68 3 -29 -8 -43 -6 -60 5 -21 14 -33 40 -12 27 5 -3 35 6 65 20 43 19
65 24 98 19 l42 -6 -25 20 c-35 29 -71 31 -127 9z m-7 -142 c-25 -19 -36 -19
-36 0 0 10 10 15 28 15 26 -1 26 -1 8 -15z m-19 -47 c-3 -8 -6 -5 -6 6 -1 11
2 17 5 13 3 -3 4 -12 1 -19z"/>
<path d="M1941 1380 c-42 -10 -52 -25 -39 -62 11 -32 56 -65 101 -75 15 -3 27
-8 27 -12 0 -12 -82 -60 -114 -67 -17 -3 -37 -11 -44 -17 -7 -5 -16 -7 -20 -3
-4 4 4 17 17 28 34 26 12 39 -37 22 -49 -17 -72 -17 -72 0 0 9 7 12 19 9 25
-6 87 49 94 85 4 20 0 31 -16 44 -29 23 -50 22 -72 -2 -10 -11 -15 -20 -11
-20 3 0 0 -13 -9 -30 -9 -17 -24 -30 -34 -30 -15 0 -18 -7 -16 -30 1 -16 8
-37 15 -45 19 -23 62 -43 85 -39 11 2 29 -6 41 -17 16 -15 28 -18 50 -13 25 6
26 8 9 15 -11 4 -14 8 -7 8 7 1 10 5 7 11 -3 5 0 7 8 4 8 -3 18 0 22 5 3 6 11
8 17 5 6 -4 8 -2 5 3 -4 6 3 11 16 11 49 1 70 8 81 25 16 26 -11 67 -64 97
l-45 25 30 3 c43 5 51 17 31 46 -17 28 -22 28 -75 16z m49 -28 c0 -4 -10 -12
-22 -17 -13 -6 -22 -16 -20 -23 1 -7 -2 -12 -7 -12 -13 0 -20 49 -7 54 18 7
56 6 56 -2z m-155 -42 c0 -8 -12 -25 -26 -37 -42 -36 -47 -27 -8 13 24 26 28
33 12 25 -19 -10 -40 -2 -27 11 11 11 49 2 49 -12z m30 0 c3 -5 1 -10 -4 -10
-6 0 -11 5 -11 10 0 6 2 10 4 10 3 0 8 -4 11 -10z m-79 -79 c-3 -5 -15 -11
-26 -14 -17 -4 -19 -3 -9 9 12 15 44 20 35 5z m259 -41 c-3 -5 -12 -7 -19 -4
-8 3 -17 1 -21 -5 -3 -6 -12 -11 -18 -11 -7 0 1 9 17 19 29 19 52 19 41 1z
m-180 0 c-3 -5 -12 -10 -18 -10 -7 0 -6 4 3 10 19 12 23 12 15 0z m25 -60 c0
-5 -5 -10 -11 -10 -5 0 -7 5 -4 10 3 6 8 10 11 10 2 0 4 -4 4 -10z"/>
<path d="M2584 1365 c3 -9 -2 -24 -12 -34 -9 -10 -18 -22 -19 -27 -1 -5 -7
-25 -14 -44 -7 -19 -14 -41 -16 -49 -2 -8 -5 -12 -8 -10 -9 9 17 95 36 122 29
40 15 46 -19 9 -33 -35 -46 -69 -30 -78 6 -4 5 -9 -3 -15 -10 -6 -10 -13 -1
-33 16 -36 56 -53 91 -39 22 8 32 6 50 -9 36 -29 52 -24 40 12 -7 20 -8 44 -1
77 12 53 10 58 -17 66 -29 7 -42 -6 -48 -52 -5 -33 -12 -45 -34 -56 -15 -8
-31 -15 -34 -15 -14 0 8 87 32 123 21 33 28 38 51 33 l27 -6 -24 20 c-28 24
-56 27 -47 5z m66 -136 c0 -44 -2 -50 -14 -39 -8 6 -13 17 -11 23 2 7 6 24 9
40 10 42 16 32 16 -24z"/>
<path d="M2325 1350 c-7 -12 2 -82 16 -118 9 -23 53 -72 65 -72 2 0 4 9 4 21
0 11 5 17 10 14 6 -3 11 2 12 12 0 10 2 23 3 28 3 17 40 75 48 75 15 0 6 30
-12 40 -31 16 -41 12 -56 -22 -12 -29 -11 -35 2 -50 15 -16 11 -22 -9 -19 -12
2 -9 -6 7 -23 14 -13 13 -15 -6 -13 -17 1 -20 7 -17 29 3 15 1 25 -4 22 -4 -3
-8 11 -8 30 0 25 -6 38 -19 46 -24 12 -28 13 -36 0z m42 -107 c-3 -10 -5 -4
-5 12 0 17 2 24 5 18 2 -7 2 -21 0 -30z"/>
<path d="M2731 1204 c0 -11 3 -14 6 -6 3 7 2 16 -1 19 -3 4 -6 -2 -5 -13z"/>
<path d="M695 1111 c-11 -5 -31 -21 -45 -36 -22 -23 -25 -36 -25 -96 l-1 -69
-76 -50 c-157 -103 -191 -192 -93 -247 51 -29 155 -31 155 -3 0 9 -92 6 -108
-4 -6 -4 -16 2 -21 13 -18 33 -12 75 14 111 23 32 177 150 195 150 5 0 6 26 3
58 -6 69 12 114 57 137 51 26 86 20 130 -26 22 -23 40 -49 40 -58 0 -21 41
-37 110 -45 66 -7 188 -56 212 -86 28 -35 10 -61 -61 -90 -106 -43 -105 -65
14 -188 80 -85 125 -144 125 -168 0 -16 -32 -30 -95 -44 -22 -5 -56 -13 -75
-18 -20 -5 -46 -5 -58 -1 -15 6 -21 5 -17 -1 14 -23 -14 -7 -46 26 -18 20 -47
45 -62 56 -26 19 -29 19 -47 3 -10 -9 -28 -47 -39 -85 -23 -75 -20 -72 -148
-110 -40 -12 -77 -19 -82 -16 -5 4 -13 1 -17 -6 -5 -8 -12 -3 -20 17 -7 17
-13 25 -14 18 0 -7 -7 -10 -15 -7 -10 4 -15 19 -15 43 0 48 19 153 30 166 5 6
12 29 16 52 8 53 21 73 33 54 9 -15 4 -49 -12 -68 -5 -7 -7 -13 -4 -13 3 0 -1
-26 -9 -57 -27 -117 -11 -94 23 31 37 137 36 153 -14 142 -27 -6 -29 -12 -61
-139 -32 -129 -39 -191 -24 -213 11 -17 68 -44 92 -44 32 0 223 52 237 64 7 6
22 45 34 86 12 41 27 80 32 85 7 7 8 6 3 -2 -10 -18 90 -101 132 -109 43 -8
254 40 272 61 19 22 -14 77 -109 182 -96 106 -124 144 -113 154 4 4 31 14 61
24 29 10 62 26 72 36 26 26 24 72 -3 104 -29 33 -149 74 -236 82 l-67 6 -22
46 c-29 60 -82 91 -161 97 -31 2 -66 0 -77 -5z m24 -38 c-20 -25 -50 -80 -48
-90 1 -4 1 -26 0 -49 -1 -38 -5 -44 -58 -82 -86 -60 -141 -117 -156 -162 -14
-43 -27 -43 -27 -1 0 49 32 84 149 160 l77 51 -4 75 -4 74 33 20 c42 26 57 27
38 4z"/>
<path d="M2096 993 c-3 -4 -16 -8 -28 -10 -12 -2 -25 -7 -28 -12 -3 -5 -32
-16 -65 -26 -71 -20 -125 -44 -125 -56 0 -10 62 -1 113 17 20 7 37 12 37 10 0
-2 9 -70 20 -150 22 -163 17 -217 -24 -255 -22 -21 -22 -21 -44 -1 -20 19 -28
47 -34 115 -4 41 -22 38 -26 -5 -4 -48 17 -119 40 -133 22 -14 23 -27 2 -27
-8 0 -12 5 -9 10 3 6 2 10 -3 10 -6 0 -17 17 -26 38 l-15 37 4 -52 c3 -29 1
-52 -3 -52 -4 1 -95 1 -203 0 l-197 -1 -7 -96 c-4 -52 -5 -97 -3 -99 9 -9
1134 -52 1139 -43 4 6 10 49 13 96 4 48 9 96 12 108 5 21 3 21 -297 27 -178 3
-309 2 -318 -3 -20 -12 7 -13 497 -19 l94 -1 -6 -82 c-9 -118 -10 -120 -58
-114 -22 2 -41 6 -43 8 -6 6 19 74 34 92 19 23 -4 49 -37 41 -13 -3 -30 -1
-38 6 -8 6 -29 9 -47 6 -26 -4 -36 -1 -46 15 -11 18 -15 19 -28 6 -8 -8 -15
-29 -15 -46 -1 -43 -18 -41 -18 2 0 22 -6 36 -16 40 -24 9 -44 -12 -44 -45 0
-16 -4 -29 -9 -29 -5 0 -9 14 -9 31 1 16 -6 37 -14 45 -14 14 -17 14 -31 -1
-12 -12 -21 -13 -35 -6 -13 7 -27 6 -46 -5 -35 -18 -41 -18 -60 2 -9 8 -16 11
-16 6 0 -18 -43 -22 -55 -5 -9 12 -23 14 -73 8 -34 -4 -66 -13 -72 -21 -10
-11 -17 -10 -41 8 -23 17 -33 19 -52 11 -19 -9 -24 -7 -33 12 -11 22 -10 22
75 24 47 1 87 6 89 11 2 5 14 4 27 -2 39 -18 156 25 199 73 55 60 62 102 42
249 -24 183 -30 167 62 175 97 8 95 8 98 29 2 17 -4 18 -79 13 -63 -4 -86 -2
-98 9 -9 8 -19 11 -23 7z m14 -42 c0 -6 -4 -12 -9 -15 -11 -7 -20 -66 -10 -66
10 0 30 -186 26 -242 -4 -53 -35 -106 -79 -131 l-28 -16 26 45 c26 44 26 48
19 142 -5 53 -8 111 -9 129 -1 17 -4 29 -8 27 -4 -3 -5 18 -2 47 4 35 2 49 -5
45 -7 -5 -8 -1 -4 9 9 26 83 48 83 26z m-541 -553 c-16 -58 -12 -105 11 -111
11 -3 22 -2 25 2 8 13 50 5 50 -10 0 -8 -8 -13 -17 -13 -10 1 -47 2 -81 3
l-64 1 2 30 c1 17 2 53 3 80 l2 50 39 0 40 0 -10 -32z m89 12 c-11 -18 -28
-27 -28 -16 0 2 -3 11 -6 20 -5 12 0 16 20 16 24 0 25 -2 14 -20z m-41 -31
l16 -41 20 36 c12 20 25 36 29 36 4 0 8 -29 8 -65 0 -37 -4 -65 -10 -65 -5 0
-10 19 -10 43 l-1 42 -15 -27 c-8 -16 -17 -28 -20 -28 -3 0 -11 15 -19 33
l-14 32 -1 -37 c0 -21 -4 -38 -10 -38 -11 0 -14 103 -3 113 10 11 12 9 30 -34z
m593 -35 c0 -41 2 -45 20 -39 24 7 27 -10 4 -19 -38 -14 -44 -7 -44 49 0 30 5
55 10 55 6 0 10 -21 10 -46z m80 1 c0 -39 3 -45 21 -45 11 0 17 -4 14 -10 -3
-6 -17 -10 -31 -10 -23 0 -24 3 -24 55 0 30 5 55 10 55 6 0 10 -20 10 -45z
m70 35 c0 -5 -4 -10 -10 -10 -5 0 -10 5 -10 10 0 6 5 10 10 10 6 0 10 -4 10
-10z m-576 -16 c20 -19 20 -34 0 -62 -28 -40 -74 -22 -74 30 0 42 45 62 74 32z
m186 6 c0 -5 -7 -10 -15 -10 -11 0 -15 -11 -15 -40 0 -22 -4 -40 -10 -40 -5 0
-10 18 -10 40 0 27 -4 40 -14 40 -10 0 -12 -11 -8 -45 3 -30 1 -45 -7 -45 -6
0 -11 15 -11 33 0 17 -4 38 -9 46 -10 15 -17 7 -37 -39 -5 -13 -13 -20 -16
-15 -4 6 0 25 8 44 12 28 18 33 39 29 14 -3 28 -1 31 3 7 12 74 11 74 -1z
m181 0 c28 -16 23 -38 -11 -45 -17 -4 -28 -11 -24 -16 3 -5 17 -7 32 -3 26 5
26 5 8 -10 -11 -9 -25 -16 -31 -16 -35 0 -49 71 -17 89 21 13 20 13 43 1z
m-93 -12 c30 -30 -1 -95 -39 -83 -15 5 -19 1 -19 -16 0 -17 -3 -20 -11 -12
-16 16 -2 100 19 113 23 13 36 12 50 -2z m400 -15 c14 -22 14 -23 -23 -23 -25
0 -35 -4 -32 -12 2 -7 16 -12 31 -10 31 3 33 -3 5 -18 -16 -9 -25 -8 -40 6
-23 21 -24 42 -2 66 21 23 41 20 61 -9z m-78 -73 c10 -5 37 -9 59 -8 36 1 41
4 41 25 0 35 18 63 40 63 26 0 26 -16 0 -23 -15 -4 -20 -14 -20 -36 0 -17 -5
-31 -11 -31 -6 0 -9 -7 -5 -15 5 -13 -14 -14 -147 -9 -84 3 -177 7 -207 9 -30
2 -64 4 -74 4 -18 1 -19 2 -3 14 18 13 107 15 144 3 12 -4 31 -2 42 3 14 8 22
8 27 0 3 -6 20 -9 36 -7 16 3 31 1 34 -4 7 -11 34 -10 34 2 0 6 -5 9 -11 8
-13 -3 -22 60 -12 82 5 9 9 0 11 -27 2 -29 9 -46 22 -53z m-516 -10 c-1 -3
-26 -3 -55 -1 -49 3 -51 4 -29 16 12 7 31 10 41 8 12 -4 21 2 26 13 6 17 8 16
13 -6 4 -14 6 -27 4 -30z m106 12 c0 -20 -45 -29 -56 -11 -4 7 -1 10 7 7 8 -3
20 1 27 9 18 17 22 16 22 -5z m-253 -8 c-3 -3 -12 -4 -19 -1 -8 3 -5 6 6 6 11
1 17 -2 13 -5z"/>
<path d="M1731 343 c-6 -12 -6 -25 -1 -34 12 -19 45 1 45 27 0 25 -31 30 -44
7z"/>
<path d="M2115 350 c-3 -5 3 -10 15 -10 12 0 18 5 15 10 -3 6 -10 10 -15 10
-5 0 -12 -4 -15 -10z"/>
<path d="M2011 332 c-8 -15 -7 -23 5 -33 18 -15 38 0 32 27 -5 25 -25 28 -37
6z"/>
<path d="M2405 340 c-3 -5 3 -10 14 -10 12 0 21 5 21 10 0 6 -6 10 -14 10 -8
0 -18 -4 -21 -10z"/>
<path d="M2370 983 c-24 -5 -70 -39 -68 -52 0 -3 -1 -10 -2 -16 -3 -11 -5 -39
-8 -98 -1 -22 -6 -36 -12 -32 -5 3 -7 20 -4 38 4 24 3 28 -5 17 -6 -8 -11 -22
-11 -30 0 -8 -14 -27 -32 -42 l-33 -27 33 -1 32 0 0 -59 c0 -32 3 -74 6 -92 5
-27 3 -31 -6 -19 -10 13 -11 12 -5 -5 4 -11 8 -26 8 -32 0 -7 11 -23 24 -35
32 -30 121 -36 196 -14 53 15 102 50 92 66 -6 10 -66 3 -105 -13 -41 -17 -71
-9 -87 24 -10 21 -33 136 -33 166 0 6 24 14 53 18 129 15 177 35 177 71 0 7
-6 19 -12 26 -7 7 -24 34 -37 59 -32 62 -96 94 -161 82z m86 -48 c10 -8 15
-15 9 -15 -5 0 -4 -4 3 -9 8 -4 16 -28 18 -52 4 -35 3 -40 -6 -26 -16 25 -28
21 -23 -7 6 -29 2 -31 -61 -41 l-49 -7 7 57 c12 103 49 140 102 100z m60 -56
c14 -28 23 -53 20 -57 -3 -3 -13 12 -22 34 -9 21 -20 47 -25 57 -6 9 -7 17 -5
17 3 0 17 -23 32 -51z m-188 -87 c3 -9 4 -37 3 -62 -3 -79 18 -167 49 -200 15
-17 27 -30 27 -31 -1 0 -13 -2 -27 -4 -35 -4 -76 20 -84 47 -9 37 -7 148 4
168 8 16 6 22 -9 32 -19 12 -19 12 0 26 10 7 19 23 19 34 0 24 11 17 18 -10z
m207 8 c-5 -9 -55 -20 -55 -12 0 3 8 10 17 17 18 13 47 9 38 -5z m-245 -75 c0
-8 -4 -15 -10 -15 -5 0 -7 7 -4 15 4 8 8 15 10 15 2 0 4 -7 4 -15z"/>
<path d="M2824 981 c13 -21 3 -255 -12 -293 -14 -35 -43 -80 -49 -75 -2 2 8
24 21 48 31 56 41 89 27 89 -6 0 -11 -6 -11 -12 0 -17 -52 -118 -60 -118 -12
0 -20 97 -20 233 l0 128 -35 -3 c-20 -1 -40 -7 -45 -13 -15 -18 -22 -381 -8
-410 10 -23 17 -25 78 -25 61 0 69 3 98 31 32 31 32 31 32 8 0 -13 3 -34 6
-47 5 -18 9 -20 20 -11 9 7 14 8 14 1 0 -10 75 -10 85 0 3 3 1 17 -5 32 -5 15
-13 114 -16 219 -5 159 -9 194 -22 204 -13 10 -17 10 -24 0 -6 -9 -8 -9 -8 2
0 9 -8 11 -25 7 -14 -4 -25 -2 -25 4 0 5 -5 10 -11 10 -5 0 -8 -4 -5 -9z m30
-36 c3 -8 1 -15 -4 -15 -6 0 -10 7 -10 15 0 8 2 15 4 15 2 0 6 -7 10 -15z
m-163 -62 c2 -210 18 -293 54 -279 8 3 15 1 17 -4 2 -5 14 1 28 13 38 33 60
109 63 213 1 51 5 90 10 87 4 -2 7 5 7 15 0 15 5 19 20 15 11 -3 20 -10 21
-17 5 -58 3 -103 -6 -115 -7 -11 -7 -13 3 -7 9 6 12 -15 12 -91 1 -54 2 -116
3 -138 2 -34 -1 -40 -20 -43 -17 -3 -25 5 -37 32 -8 20 -20 36 -26 36 -7 0 -9
8 -5 21 6 19 5 20 -8 8 -8 -8 -13 -17 -11 -21 2 -3 -10 -18 -27 -32 -26 -22
-38 -26 -76 -22 -25 2 -50 9 -56 15 -6 6 -10 39 -9 73 2 35 4 115 6 178 4 139
3 130 21 130 12 0 15 -14 16 -67z"/>
<path d="M1533 953 c18 -67 18 -70 -12 -76 -55 -11 -98 -162 -56 -193 20 -15
69 -11 93 8 8 7 12 7 12 -2 0 -8 9 -10 27 -5 16 4 29 8 30 9 1 1 -7 60 -17
131 -11 72 -20 133 -20 138 0 4 -14 7 -31 7 -24 0 -29 -4 -26 -17z m30 -175
c5 -39 4 -48 -9 -48 -8 0 -17 -7 -20 -15 -4 -8 -12 -15 -19 -15 -44 0 -35 98
14 153 15 18 16 18 22 -5 3 -13 9 -44 12 -70z"/>
<path d="M1726 922 c3 -26 7 -55 9 -65 2 -9 -1 -14 -7 -11 -6 4 -8 -2 -3 -16
5 -17 4 -21 -6 -15 -9 6 -11 4 -6 -8 7 -18 -8 -33 -17 -18 -3 5 -11 44 -17 87
-6 44 -12 80 -13 82 -2 1 -11 0 -20 -4 -15 -6 -16 -17 -11 -88 9 -122 11 -126
45 -126 17 0 38 9 50 22 l20 22 0 -22 c0 -18 6 -22 31 -22 25 0 30 3 25 16 -4
9 -12 59 -18 110 -7 52 -17 94 -23 95 -5 0 -18 2 -27 4 -15 3 -17 -3 -12 -43z
m44 -114 c0 -12 -3 -18 -7 -14 -11 10 -12 36 -2 36 5 0 9 -10 9 -22z"/>
<path d="M942 813 c-26 -21 -47 -28 -95 -31 -87 -5 -92 -7 -73 -33 8 -12 27
-30 43 -40 27 -18 28 -18 54 7 16 15 40 26 64 28 43 4 55 18 55 64 0 38 -5 39
-48 5z m28 -28 c0 -10 -10 -15 -32 -15 l-33 0 25 14 c33 19 40 19 40 1z m-108
-45 c-25 -24 -47 -26 -38 -4 3 8 2 13 -2 10 -4 -2 -14 -1 -22 5 -10 6 0 9 34
9 l50 0 -22 -20z"/>
<path d="M915 685 c-16 -7 -34 -11 -39 -7 -5 3 -6 0 -2 -6 5 -9 17 -8 44 3 20
9 38 18 41 20 8 9 -13 4 -44 -10z"/>
<path d="M849 229 c9 -9 36 -14 75 -15 106 -2 175 -7 172 -13 -2 -3 17 -7 42
-8 94 -5 172 -33 172 -63 0 -11 -88 -39 -145 -46 -22 -3 -51 -8 -65 -10 -63
-12 -178 -18 -330 -18 -159 0 -347 11 -362 20 -9 6 -25 9 -82 18 -48 8 -98 34
-93 49 2 6 30 20 63 30 56 17 91 23 197 34 54 6 64 23 13 23 -94 0 -282 -49
-300 -78 -22 -36 62 -75 212 -97 286 -43 750 -20 882 43 50 24 51 54 4 77 -57
27 -208 54 -343 61 -107 6 -123 5 -112 -7z"/>
<path d="M609 170 c-26 -4 -57 -14 -70 -20 l-23 -13 27 -14 c88 -46 458 -35
474 14 8 22 -64 36 -212 39 -82 1 -171 -1 -196 -6z m311 -14 c14 -2 34 -7 45
-12 60 -25 -261 -45 -352 -22 -42 10 -56 23 -30 27 104 16 254 19 337 7z"/>
</g>
</svg>
